<?xml version="1.0" standalone="no"?>
<!DOCTYPE svg PUBLIC "-//W3C//DTD SVG 20010904//EN"
 "http://www.w3.org/TR/2001/REC-SVG-20010904/DTD/svg10.dtd">
<svg version="1.0" xmlns="http://www.w3.org/2000/svg"
 width="713.000000pt" height="713.000000pt" viewBox="0 0 713.000000 713.000000"
 preserveAspectRatio="xMidYMid meet">
<metadata>
Created by potrace 1.14, written by Peter Selinger 2001-2017
</metadata>
<g transform="translate(0.000000,713.000000) scale(0.100000,-0.100000)"
fill="#000000" stroke="none">
<path d="M1744 5624 c-180 -38 -322 -171 -369 -347 -11 -44 -14 -318 -14
-1698 -1 -1800 -4 -1696 57 -1818 35 -71 122 -158 197 -198 129 -67 -2 -63
1799 -63 1135 0 1650 3 1691 11 182 33 331 174 380 359 10 39 14 132 15 358 0
168 3 308 6 311 3 3 58 5 124 6 65 0 122 3 125 7 5 5 -162 217 -195 248 -3 3
-53 61 -110 130 -58 69 -107 127 -110 130 -3 3 -28 33 -55 67 -27 34 -52 60
-55 57 -2 -3 -5 -283 -5 -623 l0 -617 -26 -50 c-28 -55 -96 -108 -150 -116
-19 -3 -756 -5 -1639 -4 l-1605 1 -46 21 c-56 26 -96 77 -113 141 -9 37 -12
420 -11 1658 l1 1610 21 40 c22 41 58 78 103 105 22 13 226 15 1655 17 1323 2
1637 0 1667 -11 56 -20 94 -56 119 -111 23 -50 23 -53 23 -537 0 -328 4 -488
11 -489 34 -5 224 -7 243 -3 l22 4 -1 498 c-1 537 -2 550 -56 662 -34 70 -132
168 -203 203 -120 58 -51 56 -1815 55 -1288 -1 -1632 -3 -1681 -14z"/>
<path d="M1794 5309 c-46 -13 -91 -59 -102 -105 -6 -24 -9 -637 -8 -1655 l1
-1616 28 -36 c59 -78 -98 -71 1706 -72 1199 0 1624 3 1649 12 41 14 69 38 90
78 14 26 16 102 17 638 0 335 -2 613 -6 618 -3 6 -30 -18 -60 -53 -30 -34 -64
-74 -76 -88 -87 -101 -390 -476 -387 -479 2 -2 59 -5 126 -5 l123 -1 0 -202
c0 -181 -2 -204 -18 -220 -17 -17 -90 -18 -1425 -21 -969 -2 -1418 0 -1444 8
-26 7 -39 18 -46 38 -12 34 -13 2807 -1 2839 4 12 19 29 33 38 23 15 148 17
1434 17 1064 0 1414 -3 1431 -11 12 -7 26 -23 31 -37 6 -14 10 -187 10 -399 0
-347 1 -374 18 -378 14 -4 237 -2 252 2 3 0 5 218 5 484 0 513 -2 527 -49 571
-52 47 18 45 -1691 45 -942 -1 -1623 -5 -1641 -10z"/>
<path d="M2563 4215 c0 -36 4 -68 10 -72 6 -3 39 -6 74 -5 l63 1 0 -239 0
-240 108 0 107 0 0 237 0 238 40 1 c22 1 55 2 73 3 l32 1 0 70 0 70 -253 0
-253 0 -1 -65z"/>
<path d="M3226 4238 c-46 -126 -176 -537 -176 -556 0 -21 4 -22 83 -22 l83 0
15 58 15 57 95 0 94 0 15 -57 14 -58 103 0 c98 0 103 1 103 21 0 12 -43 151
-96 310 l-97 289 -118 0 -117 0 -16 -42z m122 -143 c-3 -3 5 -41 18 -83 13
-42 24 -80 24 -84 0 -5 -22 -8 -50 -8 -27 0 -50 2 -50 5 0 9 42 160 47 168 2
4 7 7 10 7 4 0 4 -2 1 -5z"/>
<path d="M3717 4273 c-14 -13 -6 -38 37 -112 24 -42 57 -101 74 -131 l30 -55
-78 -138 c-43 -76 -77 -146 -76 -155 3 -15 16 -17 92 -17 l89 0 48 100 49 99
38 -72 c21 -40 43 -86 50 -102 l12 -30 109 0 c105 0 109 1 109 22 0 12 -28 73
-63 137 -34 64 -68 128 -76 142 -12 25 -10 33 45 130 111 195 111 191 -8 187
-104 -3 -90 8 -146 -117 l-29 -64 -24 44 c-14 24 -36 65 -50 92 l-24 47 -101
0 c-55 0 -104 -3 -107 -7z"/>
<path d="M2360 3250 l0 -310 105 0 c93 0 105 2 106 18 0 9 1 59 0 110 l0 92
32 1 c18 1 59 1 92 0 l60 -2 0 68 -1 68 -91 3 -90 3 -2 58 -1 59 115 0 c63 0
118 3 124 6 5 3 8 14 6 24 -2 9 -4 38 -4 65 l-1 47 -225 0 -225 0 0 -310z"/>
<path d="M2890 3250 l0 -310 108 0 107 0 -1 103 c-2 103 -1 103 23 103 20 0
31 -15 74 -103 l51 -103 99 0 c94 0 99 1 99 21 0 12 -25 68 -55 126 l-55 104
34 45 c71 93 56 221 -32 281 -50 33 -118 43 -292 43 l-160 0 0 -310z m304 151
c46 -50 7 -125 -62 -119 l-35 3 1 60 c0 33 1 63 1 68 2 16 78 7 95 -12z"/>
<path d="M3500 3250 l0 -310 230 0 230 0 0 70 0 70 -87 -1 c-49 -1 -105 -1
-125 0 l-38 1 0 54 0 53 58 1 c118 1 107 -6 108 67 l0 65 -83 0 -83 0 0 49 0
48 116 1 c122 0 133 3 128 45 -1 12 -3 39 -3 60 l-1 37 -225 0 -225 0 0 -310z"/>
<path d="M4040 3250 l0 -310 230 0 230 0 0 71 0 70 -92 -1 c-51 -1 -108 -1
-125 -1 l-33 1 0 54 0 53 74 0 c41 0 78 3 84 6 5 4 8 32 7 64 l-2 58 -82 3
-82 3 3 47 3 47 90 2 c50 1 104 2 120 2 l30 1 -1 67 -2 68 -226 3 -226 2 0
-310z"/>
</g>
</svg>
